<svg preserveAspectRatio="none" width="100%" height="100%" overflow="visible" style="display: block;" viewBox="0 0 16 16" fill="none" xmlns="http://www.w3.org/2000/svg">
<g id="SVG">
<path id="Vector" d="M13.034 6.6368C12.0149 6.63923 11.0208 6.32142 10.1921 5.72824V9.8653C10.1918 10.6315 9.95763 11.3794 9.52083 12.0089C9.08403 12.6385 8.46548 13.1196 7.74785 13.3881C7.03016 13.6566 6.24766 13.6996 5.50492 13.5113C4.76219 13.323 4.09462 12.9125 3.5915 12.3346C3.08837 11.7567 2.77367 11.039 2.68946 10.2774C2.60526 9.51585 2.75556 8.74667 3.12028 8.07283C3.48501 7.39899 4.04676 6.85256 4.73043 6.50655C5.4141 6.16059 6.1871 6.03159 6.94607 6.13683V8.2176C6.59876 8.10833 6.22582 8.11164 5.8805 8.22702C5.53518 8.34234 5.23513 8.56385 5.02322 8.85991C4.8113 9.15597 4.69835 9.51141 4.7005 9.8755C4.70264 10.2396 4.81977 10.5937 5.03516 10.8872C5.25055 11.1807 5.55318 11.3987 5.89983 11.51C6.24649 11.6213 6.61945 11.6201 6.96545 11.5068C7.31141 11.3935 7.6128 11.1737 7.82643 10.8789C8.04006 10.5841 8.15508 10.2293 8.15508 9.8653V1.77778H10.1921C10.1907 1.9498 10.2052 2.12159 10.2352 2.29097C10.306 2.66909 10.4532 3.0288 10.6677 3.34809C10.8823 3.66738 11.1598 3.93953 11.4831 4.14792C11.9432 4.45211 12.4825 4.61423 13.034 4.61412V6.6368Z" fill="var(--fill-0, white)"/>
</g>
</svg>
