<svg preserveAspectRatio="none" width="100%" height="100%" overflow="visible" style="display: block;" viewBox="0 0 16 16" fill="none" xmlns="http://www.w3.org/2000/svg">
<g id="SVG">
<path id="Vector" d="M14.8136 4.94583C14.7333 4.64317 14.5748 4.36694 14.3541 4.14479C14.1335 3.92265 13.8583 3.76238 13.5561 3.68005C12.4474 3.38079 8 3.38079 8 3.38079C8 3.38079 3.55259 3.38079 2.44326 3.68005C2.14128 3.76252 1.86625 3.92285 1.64568 4.14498C1.4251 4.36712 1.26672 4.64327 1.18637 4.94583C0.888889 6.06228 0.888889 8.39117 0.888889 8.39117C0.888889 8.39117 0.888889 10.7201 1.18637 11.8365C1.26672 12.1391 1.42517 12.4153 1.64586 12.6375C1.86655 12.8597 2.14174 13.0199 2.44385 13.1023C3.55259 13.4015 8 13.4015 8 13.4015C8 13.4015 12.4474 13.4015 13.5567 13.1023C13.8589 13.02 14.1341 12.8597 14.3548 12.6376C14.5755 12.4154 14.7339 12.1391 14.8142 11.8365C15.1111 10.7201 15.1111 8.39117 15.1111 8.39117C15.1111 8.39117 15.1111 6.06228 14.8136 4.94583ZM6.54519 10.5055V6.2768L10.2625 8.39117L6.54519 10.5055Z" fill="var(--fill-0, white)"/>
</g>
</svg>
