<svg preserveAspectRatio="none" width="100%" height="100%" overflow="visible" style="display: block;" viewBox="0 0 16 16" fill="none" xmlns="http://www.w3.org/2000/svg">
<g id="SVG">
<path id="Vector" d="M8.66667 10.6667V4C8.66667 3.82319 8.59643 3.65362 8.4714 3.5286C8.34638 3.40357 8.17681 3.33333 8 3.33333H2.66667C2.48986 3.33333 2.32029 3.40357 2.19526 3.5286C2.07024 3.65362 2 3.82319 2 4V10.6667C2 10.8435 2.07024 11.013 2.19526 11.1381C2.32029 11.2631 2.48986 11.3333 2.66667 11.3333H3.33333M8.66667 10.6667C8.84348 10.6667 9.01305 10.7369 9.13807 10.8619C9.2631 10.987 9.33333 11.1565 9.33333 11.3333V13C9.33333 13.0884 9.29821 13.1732 9.2357 13.2357C9.17319 13.2982 9.08841 13.3333 9 13.3333H7.66667C7.57826 13.3333 7.49348 13.2982 7.43096 13.2357C7.36845 13.1732 7.33333 13.0884 7.33333 13V12.6667H4.66667V13C4.66667 13.0884 4.63155 13.1732 4.56904 13.2357C4.50652 13.2982 4.42174 13.3333 4.33333 13.3333H3.66667C3.57826 13.3333 3.49348 13.2982 3.43096 13.2357C3.36845 13.1732 3.33333 13.0884 3.33333 13V11.3333M8.66667 10.6667C8.66667 11.0203 8.80714 11.3594 9.05719 11.6095C9.30724 11.8595 9.64638 12 10 12C10.3536 12 10.6928 11.8595 10.9428 11.6095C11.1929 11.3594 11.3333 11.0203 11.3333 10.6667C11.3333 10.313 11.1929 9.97391 10.9428 9.72386C10.6928 9.47381 10.3536 9.33333 10 9.33333C9.64638 9.33333 9.30724 9.47381 9.05719 9.72386C8.80714 9.97391 8.66667 10.313 8.66667 10.6667ZM3.33333 11.3333C3.33333 11.1565 3.40357 10.987 3.5286 10.8619C3.65362 10.7369 3.82319 10.6667 4 10.6667H5.33333M10.6667 10.6667H11.6667C11.9319 10.6667 12.1862 10.772 12.3738 10.9596C12.5613 11.1471 12.6667 11.4015 12.6667 11.6667V8.66667" stroke="var(--stroke-0, white)" stroke-width="1.66667" stroke-linecap="round" stroke-linejoin="round"/>
</g>
</svg>
