<svg preserveAspectRatio="none" width="100%" height="100%" overflow="visible" style="display: block;" viewBox="0 0 12 12" fill="none" xmlns="http://www.w3.org/2000/svg">
<g id="SVG" clip-path="url(#clip0_129_20275)">
<path id="Vector" d="M6.293 1.293C6.10551 1.10545 5.85119 1.00006 5.586 1H2C1.73478 1 1.48043 1.10536 1.29289 1.29289C1.10536 1.48043 1 1.73478 1 2V5.586C1.00006 5.85119 1.10545 6.10551 1.293 6.293L5.586 10.586C5.77353 10.7735 6.02784 10.8788 6.293 10.8788C6.55816 10.8788 6.81247 10.7735 7 10.586L10.586 7C10.7735 6.81247 10.8788 6.55816 10.8788 6.293C10.8788 6.02784 10.7735 5.77353 10.586 5.586L6.293 1.293Z" stroke="var(--stroke-0, #1F3729)" stroke-linecap="round" stroke-linejoin="round"/>
<path id="Vector_2" d="M3.75 3.75H3.755" stroke="var(--stroke-0, #1F3729)" stroke-linecap="round" stroke-linejoin="round"/>
</g>
<defs>
<clipPath id="clip0_129_20275">
<rect width="12" height="12" fill="white"/>
</clipPath>
</defs>
</svg>
