<svg preserveAspectRatio="none" width="100%" height="100%" overflow="visible" style="display: block;" viewBox="0 0 16 16" fill="none" xmlns="http://www.w3.org/2000/svg">
<g id="SVG">
<path id="Vector" d="M8 1.28009C6.06815 1.28009 5.82696 1.28898 5.06844 1.32276C4.31111 1.35832 3.79556 1.47743 3.34222 1.65343C2.87467 1.83476 2.47763 2.07832 2.08237 2.47358C1.68711 2.86884 1.44296 3.26528 1.26222 3.73343C1.08622 4.18676 0.966518 4.70232 0.931556 5.45965C0.896 6.21819 0.888889 6.45938 0.888889 8.39123C0.888889 10.3231 0.897778 10.5643 0.931556 11.3228C0.967111 12.0795 1.08622 12.5957 1.26222 13.049C1.44356 13.516 1.68711 13.9136 2.08237 14.3089C2.47763 14.7035 2.87407 14.9483 3.34222 15.129C3.79615 15.3044 4.3117 15.4247 5.06844 15.4597C5.82696 15.4952 6.06815 15.5023 8 15.5023C9.93185 15.5023 10.173 15.4935 10.9316 15.4597C11.6883 15.4241 12.2044 15.3044 12.6578 15.129C13.1247 14.9477 13.5224 14.7035 13.9176 14.3089C14.3123 13.9136 14.557 13.5177 14.7378 13.049C14.9132 12.5957 15.0335 12.0795 15.0684 11.3228C15.104 10.5643 15.1111 10.3231 15.1111 8.39123C15.1111 6.45938 15.1022 6.21819 15.0684 5.45965C15.0329 4.70291 14.9132 4.18617 14.7378 3.73343C14.5564 3.26587 14.3123 2.86884 13.9176 2.47358C13.5224 2.07832 13.1265 1.83417 12.6578 1.65343C12.2044 1.47743 11.6883 1.35772 10.9316 1.32276C10.173 1.28721 9.93185 1.28009 8 1.28009ZM8 2.56009C9.89807 2.56009 10.1244 2.56958 10.8741 2.60217C11.5674 2.63476 11.9437 2.74972 12.1938 2.84809C12.5268 2.97669 12.7627 3.13076 13.0127 3.37906C13.261 3.62795 13.4151 3.86439 13.5437 4.19743C13.6409 4.4475 13.757 4.8238 13.7884 5.51713C13.8222 6.26738 13.8299 6.49256 13.8299 8.39123C13.8299 10.2899 13.821 10.5157 13.7861 11.2653C13.7499 11.9586 13.6344 12.3349 13.5366 12.585C13.4039 12.918 13.2527 13.1539 13.0039 13.404C12.7556 13.6523 12.5156 13.8063 12.1861 13.9349C11.9372 14.0321 11.555 14.1483 10.8616 14.1797C10.1067 14.2135 9.88444 14.2212 7.98222 14.2212C6.07941 14.2212 5.85719 14.2123 5.10281 14.1773C4.40889 14.1412 4.02667 14.0256 3.77778 13.9278C3.44059 13.7951 3.20889 13.644 2.96059 13.3951C2.71111 13.1468 2.5517 12.9068 2.42726 12.5773C2.32948 12.3284 2.21452 11.9462 2.17837 11.2529C2.1517 10.5062 2.14222 10.2757 2.14222 8.38234C2.14222 6.48841 2.1517 6.2573 2.17837 5.50172C2.21452 4.80839 2.32948 4.42676 2.42726 4.17787C2.5517 3.84009 2.71111 3.60898 2.96059 3.3595C3.20889 3.11121 3.44059 2.95121 3.77778 2.82735C4.02667 2.72898 4.40059 2.61343 5.09393 2.57787C5.84948 2.55121 6.0717 2.54232 7.97333 2.54232L8 2.56009ZM8 4.73965C5.98222 4.73965 4.34844 6.37523 4.34844 8.39123C4.34844 10.409 5.984 12.0428 8 12.0428C10.0178 12.0428 11.6516 10.4072 11.6516 8.39123C11.6516 6.37345 10.016 4.73965 8 4.73965ZM8 10.7616C6.69037 10.7616 5.62963 9.70086 5.62963 8.39123C5.62963 7.0816 6.69037 6.02086 8 6.02086C9.30963 6.02086 10.3704 7.0816 10.3704 8.39123C10.3704 9.70086 9.30963 10.7616 8 10.7616ZM12.6495 4.59565C12.6495 5.06676 12.2667 5.44898 11.7961 5.44898C11.325 5.44898 10.9428 5.06617 10.9428 4.59565C10.9428 4.12513 11.3256 3.74291 11.7961 3.74291C12.2661 3.74232 12.6495 4.12513 12.6495 4.59565Z" fill="var(--fill-0, white)"/>
</g>
</svg>
