<svg preserveAspectRatio="none" width="100%" height="100%" overflow="visible" style="display: block;" viewBox="0 0 16 16" fill="none" xmlns="http://www.w3.org/2000/svg">
<g id="SVG">
<path id="Vector" d="M8 1.77778C4.72641 1.77778 2.07407 4.43011 2.07407 7.7037C2.07407 10.9773 4.72641 13.6296 8 13.6296C11.2736 13.6296 13.9259 10.9773 13.9259 7.7037C13.9259 4.43011 11.2736 1.77778 8 1.77778ZM12.0502 9.87573C11.9665 10.0693 11.6177 10.2103 10.9797 10.3106C10.9463 10.356 10.9199 10.5448 10.8769 10.6905C10.8507 10.779 10.7885 10.8315 10.6834 10.8315H10.6786C10.5305 10.8315 10.3727 10.7623 10.0621 10.7623C9.6416 10.7623 9.49582 10.8578 9.16847 11.0896C8.82199 11.3357 8.48984 11.546 7.99283 11.5245C7.49102 11.5627 7.07052 11.2569 6.83396 11.0896C6.50418 10.8578 6.36081 10.7623 5.94026 10.7623C5.64158 10.7623 5.45281 10.8363 5.32377 10.8363C5.19474 10.8363 5.14456 10.7575 5.12545 10.693C5.08244 10.5472 5.05615 10.356 5.0227 10.3106C4.69295 10.2604 3.95221 10.1314 3.93548 9.79929C3.9307 9.71324 3.99044 9.6368 4.07646 9.62246C5.1828 9.44089 5.67981 8.30584 5.70132 8.25807C5.70132 8.2557 5.7037 8.25327 5.70609 8.2509C5.76583 8.13144 5.77778 8.03105 5.74433 7.95224C5.66308 7.76344 5.3166 7.69653 5.17085 7.6368C4.79331 7.48865 4.74074 7.31662 4.76463 7.19953C4.80287 6.99644 5.10872 6.86975 5.28793 6.95342C5.42891 7.02033 5.55556 7.05375 5.66308 7.05375C5.74194 7.05375 5.79451 7.03467 5.82079 7.02033C5.78734 6.44924 5.70848 5.63441 5.91159 5.17801C6.44922 3.97611 7.58661 3.88053 7.92113 3.88053C7.93547 3.88053 8.0669 3.87813 8.08124 3.87813C8.9104 3.87813 9.70607 4.30347 10.0956 5.17563C10.2987 5.63202 10.2199 6.44444 10.1864 7.0179C10.2127 7.03224 10.2557 7.04901 10.3226 7.05138C10.4253 7.04658 10.5424 7.01316 10.6738 6.95099C10.7694 6.9056 10.9032 6.91277 10.9988 6.95099C11.1493 7.00599 11.2449 7.11348 11.2473 7.23538C11.2497 7.3907 11.1111 7.5245 10.8363 7.632C10.8028 7.64634 10.7623 7.65831 10.7192 7.67265C10.5639 7.72284 10.3273 7.79692 10.2652 7.94744C10.2318 8.02631 10.2461 8.12664 10.3035 8.2461C10.3058 8.24853 10.3058 8.2509 10.3083 8.25327C10.3298 8.3011 10.8268 9.43609 11.9331 9.61766C12.0287 9.6416 12.1028 9.7491 12.0502 9.87573Z" fill="var(--fill-0, white)"/>
</g>
</svg>
