<svg preserveAspectRatio="none" width="100%" height="100%" overflow="visible" style="display: block;" viewBox="0 0 14 14" fill="none" xmlns="http://www.w3.org/2000/svg">
<g id="SVG" clip-path="url(#clip0_129_20254)">
<path id="Vector" d="M4.66667 12.8333C4.98883 12.8333 5.25 12.5722 5.25 12.25C5.25 11.9278 4.98883 11.6667 4.66667 11.6667C4.3445 11.6667 4.08333 11.9278 4.08333 12.25C4.08333 12.5722 4.3445 12.8333 4.66667 12.8333Z" stroke="var(--stroke-0, white)" stroke-width="1.16667" stroke-linecap="round" stroke-linejoin="round"/>
<path id="Vector_2" d="M11.0833 12.8333C11.4055 12.8333 11.6667 12.5722 11.6667 12.25C11.6667 11.9278 11.4055 11.6667 11.0833 11.6667C10.7612 11.6667 10.5 11.9278 10.5 12.25C10.5 12.5722 10.7612 12.8333 11.0833 12.8333Z" stroke="var(--stroke-0, white)" stroke-width="1.16667" stroke-linecap="round" stroke-linejoin="round"/>
<path id="Vector_3" d="M1.19583 1.19583H2.3625L3.91417 8.44083C3.97109 8.70617 4.11872 8.94336 4.33167 9.11158C4.54461 9.27981 4.80953 9.36854 5.08083 9.3625H10.7858C11.0514 9.36207 11.3088 9.27108 11.5156 9.10457C11.7224 8.93806 11.8662 8.70598 11.9233 8.44667L12.8858 4.1125H2.98667" stroke="var(--stroke-0, white)" stroke-width="1.16667" stroke-linecap="round" stroke-linejoin="round"/>
</g>
<defs>
<clipPath id="clip0_129_20254">
<rect width="14" height="14" fill="white"/>
</clipPath>
</defs>
</svg>
