<svg preserveAspectRatio="none" width="100%" height="100%" overflow="visible" style="display: block;" viewBox="0 0 17.5 14" fill="none" xmlns="http://www.w3.org/2000/svg">
<g id="Group">
<path id="Vector" d="M3.33786e-06 0H17.5V14H3.33786e-06V0Z" fill="var(--fill-0, #165D31)"/>
<path id="Vector_2" fill-rule="evenodd" clip-rule="evenodd" d="M3.86611 3.96758C3.8456 4.2957 3.81484 4.86992 4.0789 4.93008C4.39424 4.96289 4.21991 4.36133 4.33528 4.25195C4.35579 4.19727 4.39424 4.19727 4.39681 4.26563V4.77695C4.39681 4.94102 4.49936 4.99023 4.57627 5.02305C4.65831 5.01758 4.71471 5.02305 4.74547 5.10508L4.78649 5.98828C4.78649 5.98828 4.97621 6.04844 4.98646 5.49336C4.99415 5.16523 4.92493 4.89453 4.96595 4.83164C4.96595 4.76875 5.04287 4.76602 5.09414 4.79609C5.17618 4.85625 5.21207 4.93281 5.34026 4.90547C5.5351 4.84531 5.65303 4.74414 5.6556 4.58555C5.65175 4.42969 5.62134 4.27589 5.56587 4.13164C5.57612 4.1043 5.52997 4.03047 5.54023 4.00312C5.57356 4.06328 5.6274 4.05781 5.63765 4.00312C5.60432 3.88828 5.55305 3.77617 5.47101 3.72969C5.40179 3.66406 5.29924 3.675 5.26591 3.81172C5.2454 3.96758 5.31718 4.15078 5.4223 4.30391C5.44537 4.36133 5.47614 4.45977 5.46332 4.54727C5.40691 4.58281 5.35051 4.56641 5.3018 4.51445C5.3018 4.51445 5.14798 4.39141 5.14798 4.36133C5.189 4.08242 5.15567 4.04961 5.1326 3.97031C5.11721 3.86367 5.0685 3.82812 5.03005 3.75703C4.99159 3.71328 4.94032 3.71328 4.91468 3.75703C4.84546 3.88281 4.87879 4.15352 4.9275 4.27656C4.96339 4.38867 5.01723 4.45977 4.99159 4.45977C4.97108 4.52266 4.9275 4.50625 4.89417 4.43242C4.85665 4.27705 4.83855 4.11707 4.84033 3.95664C4.82751 3.83086 4.81213 3.56289 4.73265 3.4918C4.68651 3.42617 4.61729 3.45898 4.59165 3.51914C4.58488 3.6413 4.58745 3.76384 4.59934 3.88555C4.65062 4.08789 4.66856 4.26836 4.6942 4.47344C4.70189 4.74961 4.5455 4.59375 4.55319 4.4543C4.58683 4.27898 4.5842 4.09795 4.5455 3.92383C4.51987 3.85273 4.49166 3.83633 4.42757 3.84727C4.37886 3.84727 4.25324 3.99219 4.21735 4.23828C4.21735 4.23828 4.18658 4.36406 4.17376 4.47617C4.15582 4.60195 4.0789 4.69492 4.0225 4.45977C3.97635 4.2875 3.94559 3.86914 3.86868 3.96758H3.86611Z" fill="var(--fill-0, white)"/>
<path id="Vector_3" fill-rule="evenodd" clip-rule="evenodd" d="M4.72494 5.31016L3.90455 5.73125C3.91224 5.53164 4.29167 5.17344 4.55317 5.1707C4.71981 5.17344 4.67879 5.23906 4.72238 5.31016H4.72494Z" fill="var(--fill-0, white)"/>
<path id="Vector_4" fill-rule="evenodd" clip-rule="evenodd" d="M4.57888 5.58359C4.14818 6.77305 5.59156 6.93984 5.75307 5.63281C5.76845 5.57812 5.82998 5.52617 5.84024 5.61367C5.80691 6.79766 4.72245 6.87695 4.53786 6.50508C4.49444 6.37712 4.47274 6.24194 4.47377 6.10586C4.44813 5.87344 4.33277 5.96367 4.31482 6.19336C4.29687 6.32187 4.302 6.35742 4.302 6.48047C4.3584 7.41562 5.75564 7.01367 5.98381 6.24258C6.1043 5.81602 5.9633 5.50156 6.02739 5.50156C6.16583 5.66016 6.36067 5.52344 6.40426 5.46875C6.4222 5.44141 6.46835 5.42227 6.49912 5.45781C6.60679 5.53984 6.79651 5.50156 6.83753 5.35664C6.8606 5.21172 6.87855 5.06406 6.88367 4.91367C6.79394 4.94102 6.72985 4.96016 6.72216 5.00117L6.70421 5.12695C6.69652 5.16797 6.62217 5.16797 6.61705 5.11602C6.58372 4.95195 6.44528 4.93281 6.36067 5.18437C6.30684 5.23359 6.20429 5.24453 6.19403 5.1707C6.20685 5.00117 6.14276 4.9793 6.01457 5.05859L5.89151 4.06875C5.94279 4.06875 5.99406 4.10977 6.04277 4.04414C5.9915 3.86641 5.87613 3.50547 5.81204 3.47812C5.78384 3.43984 5.7582 3.46445 5.71718 3.47539C5.65052 3.49727 5.58899 3.55742 5.6095 3.67773C5.68641 4.1918 5.73769 4.58281 5.81716 5.09961C5.82998 5.15703 5.78384 5.23633 5.72231 5.22812C5.61976 5.1543 5.59412 5.00391 5.41466 5.00937C5.28647 5.00937 5.1429 5.15977 5.12496 5.30195C5.10188 5.4168 5.09419 5.53984 5.12496 5.63828C5.21469 5.75312 5.32237 5.74219 5.41722 5.71758C5.49414 5.68203 5.55823 5.6 5.58643 5.61914C5.60438 5.64375 5.58899 5.91719 5.21982 6.125C4.99677 6.23437 4.81731 6.25625 4.72245 6.06211C4.66349 5.93906 4.72758 5.47695 4.57888 5.58359Z" fill="var(--fill-0, white)"/>
<path id="Vector_5" fill-rule="evenodd" clip-rule="evenodd" d="M6.41703 4.375C6.50164 4.34219 6.91183 3.83906 6.91183 3.83906L6.8503 3.78437C6.82723 3.76523 6.82979 3.74336 6.8503 3.72422C6.95285 3.65859 6.91952 3.52187 6.86825 3.45625C6.83344 3.43815 6.79515 3.42897 6.75642 3.42945C6.7177 3.42992 6.67962 3.44004 6.6452 3.45898C6.57342 3.53281 6.55804 3.65039 6.61444 3.72148C6.66828 3.74883 6.72212 3.80898 6.68622 3.8418C6.51702 4.0332 6.05811 4.36406 6.11195 4.375C6.1222 4.39141 6.40678 4.39141 6.41447 4.375H6.41703ZM3.93022 6.15234C3.77639 6.41484 3.76358 6.80586 3.84818 6.92344C3.89433 6.97812 3.96867 7.00273 4.02251 6.98359C4.11993 6.93984 4.16352 6.7293 4.14044 6.65547C4.10711 6.60078 4.08148 6.59258 4.04815 6.63633C3.98149 6.78398 3.95329 6.68281 3.9456 6.60078C3.93825 6.46186 3.94513 6.32249 3.96611 6.18516C3.98406 6.07031 3.96611 6.10312 3.93022 6.15234ZM10.5216 5.73398C10.3729 5.38945 10.1652 5.05039 10.1011 4.92187C9.90132 4.58501 9.68922 4.25663 9.4653 3.9375C9.30635 3.73516 9.7268 4.02227 9.41403 3.61758L9.18586 3.4125C9.13458 3.37422 9.01152 3.30312 8.99101 3.41797C8.98076 3.52187 8.98589 3.57656 9.00127 3.66133C9.01409 3.71602 9.091 3.81172 9.12946 3.86641C9.65505 4.60891 10.1167 5.40054 10.5087 6.23164C10.5754 6.19609 10.56 5.79141 10.5216 5.73398Z" fill="var(--fill-0, white)"/>
<path id="Vector_6" fill-rule="evenodd" clip-rule="evenodd" d="M9.86779 6.87695C9.83702 6.9125 9.93957 7.06289 10.0729 7.06289C10.2934 7.03555 10.4882 6.9043 10.6677 6.5543C10.7406 6.43787 10.7871 6.30493 10.8035 6.16602C10.8253 5.50222 10.7754 4.83797 10.6549 4.18633C10.6472 4.13164 10.6549 4.06602 10.66 4.04961C10.6754 4.03047 10.7241 4.04961 10.7497 4.00312C10.7882 3.96211 10.6472 3.62031 10.5702 3.4918C10.5446 3.43164 10.5318 3.39336 10.4856 3.49727C10.43 3.61192 10.4034 3.74014 10.4087 3.86914C10.5138 4.64844 10.5472 5.3293 10.6138 6.10859C10.6215 6.18516 10.6113 6.29453 10.5626 6.33828C10.3691 6.56801 10.1324 6.75157 9.86779 6.87695ZM12.8545 6.87422C12.6956 6.97266 12.6956 7.08477 12.8238 7.0875C13.0442 7.06016 13.3057 7.04102 13.4852 6.75117C13.5486 6.61466 13.5852 6.46579 13.5929 6.31367C13.6252 5.6601 13.5847 5.00475 13.4724 4.36133C13.4673 4.30664 13.4442 4.17813 13.4519 4.16172C13.4673 4.12344 13.539 4.16445 13.5647 4.1207C13.6006 4.07969 13.3775 3.77344 13.2981 3.64219C13.2724 3.58203 13.2622 3.54375 13.2135 3.64766C13.1618 3.76336 13.1457 3.89348 13.1673 4.01953C13.2852 4.86719 13.3724 5.50156 13.3903 6.25078C13.3801 6.32188 13.3775 6.36016 13.3468 6.45039C13.2775 6.54336 13.2006 6.66367 13.1288 6.72109C13.0571 6.77578 12.9032 6.83047 12.8545 6.87422Z" fill="var(--fill-0, white)"/>
<path id="Vector_7" fill-rule="evenodd" clip-rule="evenodd" d="M12.9725 6.1168C12.9725 5.91719 12.9751 5.74766 12.97 5.59727C12.9683 5.4699 12.9421 5.34425 12.8931 5.22813C12.8469 5.11602 12.8751 5.02578 12.852 4.90547C12.8315 4.78516 12.8367 4.60469 12.8059 4.46523C12.7956 4.41055 12.77 4.23281 12.7777 4.21367C12.7905 4.17539 12.8392 4.21367 12.8649 4.16992C12.9007 4.12891 12.7367 3.67773 12.6546 3.54922C12.6264 3.4918 12.57 3.51094 12.5059 3.60391C12.4418 3.6668 12.4649 3.80625 12.4906 3.94023C12.6469 4.82344 12.7674 5.62461 12.7418 6.46406C12.7315 6.53516 12.9725 6.25078 12.9725 6.1168ZM11.8009 5.02305C11.7009 5.01758 11.4933 4.8125 11.4317 4.69492C11.4217 4.66619 11.4174 4.63551 11.4191 4.60489C11.4209 4.57427 11.4287 4.54439 11.442 4.51719C11.4804 4.48984 11.5368 4.4625 11.5804 4.48984C11.5804 4.48984 11.624 4.55547 11.6163 4.56367C11.6676 4.59102 11.6932 4.57734 11.6984 4.55273C11.7009 4.51172 11.683 4.48711 11.683 4.44336C11.7061 4.31758 11.8368 4.29844 11.8881 4.37774C11.924 4.42695 11.9394 4.52813 11.9419 4.59649C11.9419 4.63203 11.8906 4.59102 11.8573 4.59649C11.8291 4.60742 11.8214 4.6457 11.8189 4.67852C11.8137 4.76875 11.8035 4.91367 11.8009 5.02031V5.02305ZM9.96015 6.33555C9.98579 6.06758 9.9499 5.58906 9.94734 5.43047C9.93362 5.0226 9.90197 4.61564 9.85248 4.21094C9.82171 3.98125 9.93964 4.23555 9.92426 4.10156C9.88581 3.87461 9.76787 3.71875 9.62687 3.51367C9.58329 3.44531 9.58329 3.43164 9.51406 3.53008C9.43715 3.71328 9.50381 3.8418 9.52432 3.98672C9.62431 4.45703 9.68327 4.88906 9.71147 5.31836C9.74099 5.76431 9.74442 6.2118 9.72173 6.6582C9.79864 6.66094 9.91657 6.52969 9.96015 6.33555Z" fill="var(--fill-0, white)"/>
<path id="Vector_8" fill-rule="evenodd" clip-rule="evenodd" d="M13.3135 5.90625C13.1366 5.58906 12.8725 5.25 12.8008 5.12148C12.563 4.7674 12.3133 4.42264 12.0522 4.08789C11.8342 3.8418 12.1547 4.04687 12.0111 3.85547C11.8906 3.71602 11.8573 3.66953 11.7522 3.58477C11.7009 3.54922 11.6702 3.48086 11.6496 3.59844C11.6415 3.70028 11.6398 3.8026 11.6445 3.90469C11.6445 3.95117 11.6907 4.04141 11.7317 4.09609C12.2624 4.79336 12.8443 5.5043 13.3109 6.39844C13.3776 6.36289 13.3545 5.96094 13.3109 5.90625H13.3135Z" fill="var(--fill-0, white)"/>
<path id="Vector_9" fill-rule="evenodd" clip-rule="evenodd" d="M5.33001 5.32383C5.3172 5.34844 5.28899 5.37852 5.29925 5.40859C5.3172 5.43594 5.33514 5.44414 5.36591 5.44414C5.39411 5.44414 5.43513 5.45234 5.44282 5.43594C5.4582 5.4168 5.46846 5.38125 5.4582 5.3457C5.42744 5.26367 5.3454 5.29648 5.33001 5.32383Z" fill="var(--fill-0, #165D31)"/>
<path id="Vector_10" fill-rule="evenodd" clip-rule="evenodd" d="M11.2675 9.91211C11.5034 9.92305 11.6572 9.92578 11.8649 9.95039L12.111 9.92305C12.3827 9.8957 12.393 10.3359 12.393 10.3359C12.393 10.5957 12.2981 10.6094 12.1776 10.6367C12.1084 10.6477 12.0751 10.593 12.0366 10.5383C11.9787 10.5581 11.9169 10.5619 11.8572 10.5492C11.7572 10.5438 11.6598 10.5438 11.5623 10.5355C11.4598 10.5273 11.4034 10.5492 11.2983 10.5383C11.2778 10.5738 11.247 10.623 11.1855 10.6094C11.1342 10.6012 11.0701 10.4453 11.0881 10.3223C11.1265 10.2348 11.1137 10.2648 11.1137 10.2266C10.1497 10.1992 9.17808 10.1527 8.23463 10.1664C7.49627 10.1691 6.76818 10.202 6.03751 10.2348C5.64783 10.2293 5.35043 10.1637 5.14534 9.84375C5.16585 9.84375 6.14006 9.90117 6.42464 9.88203C6.9502 9.87656 7.43218 9.83008 7.968 9.81367C9.02425 9.83281 10.0728 9.83281 11.1291 9.91211C11.0265 9.83828 11.0265 9.66602 11.1803 9.62227C11.1932 9.61133 11.2009 9.70703 11.2239 9.7043C11.3496 9.69609 11.2932 9.87656 11.2675 9.91211ZM7.02198 3.69961C6.86303 4.18633 7.11428 4.72227 7.28861 4.67031C7.4168 4.725 7.49371 4.46797 7.54498 4.18906C7.58344 4.10977 7.60908 4.10156 7.62702 4.14258C7.6219 4.51445 7.65266 4.59922 7.74239 4.71133C7.94236 4.87539 8.109 4.7332 8.12182 4.71953L8.27565 4.55273C8.31154 4.51172 8.35769 4.51172 8.4064 4.54453C8.45511 4.59102 8.44742 4.67031 8.54996 4.725C8.63713 4.76328 8.81916 4.73594 8.86274 4.65664C8.91914 4.55 8.93453 4.51445 8.96016 4.47617C9.00118 4.41875 9.0704 4.44336 9.0704 4.4625C9.06271 4.49531 9.02169 4.52539 9.04989 4.58555C9.10117 4.62383 9.11142 4.59922 9.13962 4.59102C9.24217 4.53633 9.31908 4.30117 9.31908 4.30117C9.32165 4.21367 9.2755 4.21914 9.24474 4.24102L9.16526 4.29844C9.11399 4.30664 9.01913 4.34219 8.97042 4.26289C8.92171 4.16992 8.92171 4.03594 8.88581 3.94023C8.88581 3.93477 8.81916 3.78984 8.88069 3.78164C8.91145 3.78711 8.97554 3.80625 8.9858 3.74883C9.01656 3.69141 8.91914 3.53008 8.84992 3.44805C8.79096 3.37969 8.70892 3.37148 8.62944 3.44258C8.57304 3.49727 8.58073 3.55742 8.57048 3.61484C8.56075 3.65599 8.56033 3.69902 8.56924 3.74038C8.57816 3.78174 8.59615 3.82025 8.62175 3.85273C8.67815 3.96758 8.77814 4.11797 8.74481 4.33125C8.74481 4.33125 8.68584 4.42969 8.58329 4.41602C8.53971 4.40781 8.47049 4.38867 8.4346 4.09336C8.4064 3.87461 8.43973 3.56289 8.35256 3.41797C8.31923 3.32773 8.29616 3.24297 8.21924 3.39336C8.19873 3.45352 8.109 3.54375 8.1731 3.72695C8.23375 3.89204 8.25146 4.07154 8.22437 4.24648C8.18592 4.30664 8.17822 4.32578 8.12951 4.3832C8.06286 4.46523 7.98851 4.44336 7.93211 4.41328C7.88083 4.37773 7.83981 4.35859 7.81418 4.23555C7.8193 4.04414 7.82956 3.72969 7.79623 3.66406C7.74752 3.56016 7.66804 3.59844 7.63471 3.63125C7.48221 3.81195 7.38009 4.03451 7.33989 4.27383C7.29374 4.43242 7.24503 4.38594 7.2117 4.32305C7.12966 4.24102 7.12197 3.59297 7.02198 3.69961Z" fill="var(--fill-0, white)"/>
<path id="Vector_11" fill-rule="evenodd" clip-rule="evenodd" d="M7.50395 4.76055C7.5783 4.70586 7.54497 4.66758 7.65265 4.78242C7.79163 5.0447 7.87233 5.3375 7.88851 5.63828C7.88339 5.70937 7.92953 5.75313 7.95261 5.73672C7.96286 5.57266 8.33973 5.34297 8.68583 5.31016C8.73711 5.29648 8.71147 5.18984 8.71916 5.13516C8.69865 4.93008 8.82684 4.74414 9.0063 4.73047C9.25242 4.76875 9.33446 4.9082 9.33958 5.11875C9.31138 5.52891 8.91144 5.59727 8.6884 5.63008C8.65507 5.64375 8.63969 5.66016 8.6884 5.6793L9.62672 5.68477L9.67543 5.71211C9.68056 5.73945 9.66005 5.71758 9.62416 5.7832C9.57254 5.87992 9.54024 5.98698 9.5293 6.09766C9.24985 6.19609 8.96015 6.23437 8.66789 6.27539C8.56534 6.33008 8.51406 6.40391 8.53457 6.48594C8.57047 6.57617 8.79607 6.66914 8.79607 6.67187C8.83966 6.69922 8.88837 6.76758 8.78325 6.90703C8.32691 6.88516 7.97055 6.67734 7.84749 6.38477C7.8116 6.35469 7.77058 6.38477 7.74495 6.42305C7.56548 6.66914 7.39115 6.88789 7.08607 7.0082C6.90661 7.05742 6.71945 6.97813 6.63229 6.85234C6.57332 6.77852 6.57589 6.69922 6.55538 6.68281C6.45539 6.7293 5.60936 7.11211 5.71704 6.93164C5.92214 6.69922 6.28106 6.52422 6.59383 6.29453C6.61691 6.21523 6.65793 5.95273 6.78098 5.86797C6.78868 5.86797 6.76304 6.02109 6.7656 6.08672C6.7656 6.14141 6.76047 6.16055 6.77073 6.14688C6.7938 6.1332 7.17323 5.81328 7.20656 5.71484C7.24245 5.66016 7.21425 5.51797 7.21425 5.5125C7.14247 5.31563 7.04248 5.29922 7.00659 5.20078C6.97326 5.07227 6.98865 4.92461 7.05787 4.88086C7.1194 4.82344 7.19118 4.82891 7.2604 4.89453C7.33731 4.96836 7.40397 5.11328 7.42448 5.21992C7.41166 5.26094 7.32193 5.19258 7.29629 5.21172C7.34564 5.2722 7.37845 5.34598 7.39115 5.425C7.44243 5.64922 7.42704 5.73672 7.37577 5.88164C7.20656 6.26172 6.99121 6.37383 6.80149 6.51602C6.79637 6.51602 6.7938 6.61172 6.86302 6.66367C6.88866 6.69102 6.98865 6.70469 7.10401 6.66367C7.35049 6.51768 7.54978 6.29559 7.67572 6.02656C7.69751 5.82186 7.67649 5.61454 7.6142 5.41953C7.53985 5.23633 7.45268 4.97656 7.45268 4.97109C7.45012 4.85625 7.45781 4.81797 7.50395 4.76055ZM5.0479 3.70508C5.15558 3.75977 5.36068 3.73516 5.35042 3.54922L5.3453 3.46445C5.32479 3.40977 5.26326 3.42344 5.25044 3.47812C5.24531 3.49727 5.25813 3.52734 5.24275 3.53555C5.23249 3.54648 5.19916 3.54102 5.19916 3.48906C5.19916 3.47266 5.18891 3.45625 5.18122 3.44531C5.17609 3.43984 5.17096 3.43984 5.15815 3.43984C5.14276 3.43984 5.14276 3.44258 5.13507 3.45625C5.13251 3.46992 5.12738 3.48359 5.12738 3.5C5.12738 3.51914 5.11713 3.52461 5.10687 3.52734C5.09149 3.52734 5.09405 3.52734 5.08123 3.52187C5.07611 3.51367 5.06841 3.51094 5.06841 3.49453L5.06072 3.45078C5.0556 3.44258 5.04534 3.43711 5.03509 3.43437C4.97612 3.43437 4.97099 3.5082 4.97612 3.53555C4.97099 3.54102 4.96843 3.66953 5.0479 3.70508Z" fill="var(--fill-0, white)"/>
<path id="Vector_12" fill-rule="evenodd" clip-rule="evenodd" d="M8.2142 5.13242C8.32188 5.18711 8.58081 5.15703 8.51672 4.9793L8.51159 4.8918C8.48852 4.83711 8.42955 4.85078 8.41674 4.9082C8.41161 4.92461 8.42443 4.95469 8.40648 4.96289C8.39879 4.97383 8.3629 4.96836 8.36546 4.91914C8.36546 4.90273 8.35521 4.88359 8.34752 4.87266C8.33982 4.86992 8.33726 4.86719 8.32188 4.86719C8.30906 4.86719 8.30906 4.87266 8.30137 4.88633C8.29624 4.9 8.29368 4.91367 8.29368 4.93008C8.29111 4.94648 8.28342 4.95195 8.2706 4.95742C8.25778 4.95742 8.26035 4.95742 8.25009 4.94922C8.2424 4.94102 8.23471 4.93828 8.23471 4.92461L8.22702 4.88086C8.22189 4.87266 8.21164 4.86719 8.20138 4.86445C8.14242 4.86445 8.13729 4.93555 8.13985 4.96289C8.13729 4.96836 8.13473 5.09961 8.21677 5.13242H8.2142ZM10.0601 4.5418C10.1678 4.59648 10.3703 4.57187 10.3626 4.38867L10.3575 4.30117C10.3344 4.24648 10.2754 4.26016 10.2626 4.31484C10.2575 4.33398 10.2703 4.36406 10.2524 4.375C10.2447 4.3832 10.2088 4.37773 10.2113 4.32578C10.2113 4.30937 10.2011 4.29297 10.1934 4.28203C10.1857 4.27656 10.1831 4.27656 10.1678 4.27656C10.1549 4.27656 10.1549 4.28203 10.1473 4.2957L10.1396 4.33672C10.137 4.35586 10.1293 4.36406 10.1165 4.36406C10.1037 4.36406 10.1062 4.36406 10.096 4.35859C10.0883 4.35039 10.0806 4.34766 10.0806 4.33398C10.0806 4.32031 10.078 4.29844 10.0729 4.2875C10.0678 4.2793 10.0575 4.27656 10.0473 4.27383C9.9883 4.27383 9.98317 4.34492 9.98574 4.37226C9.98317 4.37773 9.98061 4.50625 10.0626 4.5418H10.0601ZM11.0164 6.02656C10.8292 6.25351 10.9112 6.62812 10.9548 6.71016C11.0164 6.84141 11.0651 6.92617 11.1856 6.9918C11.2958 7.07656 11.383 7.02461 11.4291 6.96445C11.5394 6.84141 11.5419 6.52695 11.5932 6.4668C11.6291 6.35195 11.7214 6.37109 11.765 6.42305C11.8057 6.48478 11.8604 6.53461 11.9239 6.56797C12.0265 6.66367 12.1495 6.68281 12.2726 6.59531C12.3546 6.54336 12.4085 6.48047 12.4572 6.35195C12.5084 6.19883 12.4828 5.48789 12.47 5.0668L12.3623 4.47891C12.3623 4.47344 12.3495 4.2 12.3367 4.13711C12.3367 4.10977 12.329 4.10156 12.3546 4.1043C12.3828 4.13164 12.3854 4.13164 12.4059 4.13984C12.4315 4.14531 12.4572 4.09336 12.4392 4.04961L12.1829 3.54102C12.1623 3.51914 12.1341 3.49727 12.1008 3.54648C12.0811 3.56547 12.0655 3.5887 12.0549 3.61462C12.0443 3.64055 12.039 3.66859 12.0393 3.69687C12.047 3.81719 12.0649 3.94023 12.0726 4.06055L12.1752 4.67852C12.2085 5.11602 12.2162 5.47695 12.2495 5.91719C12.2444 6.10312 12.1905 6.26445 12.1393 6.28906C12.1393 6.28906 12.0624 6.33555 12.0111 6.28359C11.9726 6.26719 11.8214 6.01289 11.8214 6.01289C11.7445 5.93906 11.6932 5.9582 11.6393 6.01289C11.4855 6.17148 11.4189 6.46133 11.3137 6.66367C11.2881 6.71016 11.2112 6.7457 11.1292 6.66094C10.9189 6.35195 11.042 5.91445 11.0164 6.02656ZM10.1088 3.46445C10.2062 3.50547 10.2729 3.71602 10.2524 3.81992C10.2319 3.94297 10.1806 4.07969 10.1447 4.06328C10.1037 4.04687 10.1703 3.9375 10.1319 3.82266C10.1114 3.74609 9.97805 3.60937 9.99343 3.57109C9.96779 3.48633 10.0498 3.44805 10.1088 3.46172V3.46445Z" fill="var(--fill-0, white)"/>
<path id="Vector_13" fill-rule="evenodd" clip-rule="evenodd" d="M11.3291 6.15234C11.3471 5.90078 11.3138 5.74766 11.3086 5.6C11.3035 5.45234 11.1522 4.32578 11.1215 4.21641C11.083 4.00312 11.2676 4.18906 11.2471 4.06328C11.183 3.91016 11.0266 3.6832 10.9779 3.54922C10.9471 3.49453 10.96 3.43984 10.8933 3.53555C10.8359 3.70334 10.8157 3.88304 10.8343 4.06055C10.9933 4.94375 11.1548 5.67656 11.1292 6.51602C11.2061 6.51602 11.2907 6.33281 11.3291 6.15234ZM12.9802 3.81992C13.0699 3.86641 13.1212 4.12891 13.1109 4.20273C13.093 4.33945 13.0468 4.48711 13.0135 4.46797C12.975 4.45156 13.0212 4.26562 13.0032 4.2082C12.9827 4.12617 12.8622 3.97851 12.8751 3.93476C12.8494 3.8418 12.9263 3.80351 12.9802 3.81992ZM6.42473 5.67656C6.50933 5.71211 6.5606 5.90352 6.55291 5.9582C6.5324 6.05937 6.48882 6.16875 6.45549 6.15234C6.42216 6.14141 6.46318 6.00469 6.4478 5.96094C6.44011 5.85977 6.32218 5.80508 6.32474 5.76133C6.30423 5.6793 6.37602 5.66562 6.42729 5.67656H6.42473Z" fill="var(--fill-0, white)"/>
<path id="Vector_14" fill-rule="evenodd" clip-rule="evenodd" d="M8.4655 5.96641C8.57318 5.97188 8.62702 6.06484 8.52703 6.10313C8.42448 6.13867 8.32962 6.16875 8.32706 6.32188C8.36552 6.54063 8.27578 6.46406 8.22451 6.43672C8.16298 6.3875 7.98865 6.27266 7.96301 6.02656C7.96045 5.96914 8.00403 5.91719 8.07325 5.91719C8.1758 5.94727 8.32962 5.95 8.4655 5.96641Z" fill="var(--fill-0, #165D31)"/>
<path id="Vector_15" fill-rule="evenodd" clip-rule="evenodd" d="M4.17122 3.40156C4.29428 3.43984 4.30197 3.63672 4.29428 3.69414C4.27633 3.79805 4.23275 3.91016 4.20198 3.89648C4.16609 3.88281 4.20198 3.74063 4.18404 3.69688C4.16609 3.63672 4.06098 3.52188 4.07123 3.48906C4.04816 3.4207 4.12251 3.38789 4.17122 3.40156ZM6.62983 4.32031C6.53241 4.375 6.49652 4.53906 6.55548 4.6375C6.61189 4.71953 6.69905 4.68945 6.70931 4.68945C6.80417 4.70039 6.86057 4.50078 6.86057 4.50078C6.86057 4.50078 6.86313 4.44609 6.75289 4.55273C6.70418 4.56094 6.70162 4.5418 6.6888 4.51445C6.67706 4.4624 6.68156 4.40768 6.70162 4.35859C6.71956 4.30938 6.68367 4.2875 6.62983 4.32031ZM7.34768 3.325C7.2964 3.36055 7.20154 3.46719 7.19898 3.5875C7.19642 3.65586 7.1836 3.65586 7.22462 3.69688C7.25795 3.74609 7.28615 3.74336 7.34768 3.70781C7.36301 3.69752 7.37617 3.68394 7.38632 3.66794C7.39647 3.65193 7.40339 3.63385 7.40664 3.61484C7.42202 3.53828 7.32973 3.65313 7.31947 3.56563C7.29897 3.48359 7.35793 3.45078 7.41433 3.37422C7.41433 3.31953 7.41433 3.28398 7.34511 3.325H7.34768ZM7.92195 3.43438C7.89935 3.53394 7.88561 3.63557 7.88093 3.73789C7.86555 3.81445 7.95784 3.84727 7.9963 3.74883C8.05783 3.57109 8.05783 3.49453 8.06296 3.4207C8.04501 3.30313 7.97066 3.30586 7.92195 3.43438ZM11.5624 5.41133C11.5727 5.39766 12.0752 5.01758 12.0752 5.01758C12.1265 4.99844 12.1136 5.21445 12.0906 5.21172C11.9347 5.3719 11.7555 5.50397 11.5599 5.60273C11.5342 5.62188 11.5112 5.45781 11.5599 5.41133H11.5624ZM12.0162 5.40586C12.106 5.45234 12.1418 5.72852 12.1316 5.80234C12.1316 5.95 12.047 6.06484 12.0111 6.04844C11.9752 6.0293 12.0162 5.86523 11.9983 5.80781C11.9778 5.72578 11.9034 5.57539 11.9162 5.53164C11.8906 5.43867 11.9624 5.38945 12.0188 5.40586H12.0162ZM9.0423 6.59258C9.08389 6.54081 9.13224 6.49568 9.18587 6.45859C9.23714 6.43125 9.28329 6.48047 9.28073 6.47773C9.28842 6.53242 9.24996 6.57891 9.26278 6.65C9.27304 6.67734 9.28073 6.71016 9.32944 6.69922C9.40891 6.63086 9.48326 6.62539 9.56017 6.62266C9.62427 6.62539 9.62683 6.7375 9.58581 6.7375C9.43968 6.77031 9.37558 6.81406 9.27047 6.85508C9.2192 6.88789 9.17818 6.84688 9.17818 6.84414C9.17818 6.84141 9.14998 6.81406 9.16792 6.74297C9.17305 6.68828 9.15254 6.65547 9.10639 6.66094C9.07563 6.68281 9.04486 6.69375 9.02948 6.65273C9.02179 6.62539 9.01923 6.60898 9.0423 6.59258ZM12.5444 6.74023C12.5649 6.76758 12.5802 6.79492 12.5418 6.84414L12.4469 6.93164C12.4315 6.95898 12.4213 7.0082 12.4726 7.02187C12.5649 7.04922 12.7802 6.89883 12.7802 6.89609C12.8161 6.86875 12.8059 6.81406 12.8007 6.81406C12.7802 6.78945 12.7341 6.80586 12.7033 6.80039C12.6879 6.80039 12.6392 6.79492 12.6623 6.7457C12.6795 6.72154 12.6933 6.69483 12.7033 6.66641C12.7161 6.63359 12.7033 6.61172 12.652 6.59258C12.5982 6.58164 12.5751 6.58711 12.5161 6.59258C12.4854 6.59805 12.4751 6.61445 12.4674 6.65547C12.47 6.71836 12.5059 6.71562 12.5444 6.7375V6.74023Z" fill="var(--fill-0, white)"/>
<path id="Vector_16" fill-rule="evenodd" clip-rule="evenodd" d="M9.06026 5.18711C9.04744 5.21445 9.0013 5.21445 8.95771 5.18711C8.91413 5.15977 8.88849 5.11602 8.90387 5.09141C8.91926 5.0668 8.96284 5.0668 9.00642 5.09141C9.05001 5.11602 9.07308 5.1625 9.06026 5.18711ZM6.77855 3.72148C6.75291 3.72969 6.71702 3.70508 6.70163 3.6668C6.68625 3.62852 6.69394 3.5957 6.71958 3.5875C6.74522 3.5793 6.77855 3.60664 6.79649 3.64219C6.81444 3.67773 6.80418 3.71602 6.77598 3.72422L6.77855 3.72148ZM11.2933 10.2539C11.5343 10.2648 11.7599 10.2539 11.9983 10.2676C12.0419 10.3086 12.0111 10.4043 11.9829 10.3988L11.7829 10.3906C11.7804 10.3086 11.5855 10.3223 11.5907 10.3934C11.4855 10.407 11.3907 10.3906 11.283 10.3852C11.2522 10.3441 11.2574 10.2703 11.2933 10.2539Z" fill="var(--fill-0, #165D31)"/>
</g>
</svg>
